<mxfile host="app.diagrams.net" agent="Mozilla/5.0 (Windows NT 10.0; Win64; x64) AppleWebKit/537.36 (KHTML, like Gecko) Chrome/139.0.0.0 Safari/537.36" version="28.1.1">
  <diagram name="Page-1" id="TV0aQaLisHAarEsyN10_">
    <mxGraphModel dx="1048" dy="575" grid="1" gridSize="10" guides="1" tooltips="1" connect="1" arrows="1" fold="1" page="1" pageScale="1" pageWidth="850" pageHeight="1100" math="0" shadow="0">
      <root>
        <mxCell id="0" />
        <mxCell id="1" parent="0" />
        <mxCell id="g_IsIZJmFIKbilpampKu-15" style="edgeStyle=orthogonalEdgeStyle;rounded=0;orthogonalLoop=1;jettySize=auto;html=1;exitX=1;exitY=0.5;exitDx=0;exitDy=0;entryX=0;entryY=0.5;entryDx=0;entryDy=0;" edge="1" parent="1" source="g_IsIZJmFIKbilpampKu-1" target="g_IsIZJmFIKbilpampKu-2">
          <mxGeometry relative="1" as="geometry" />
        </mxCell>
        <mxCell id="g_IsIZJmFIKbilpampKu-1" value="main.py" style="rounded=1;whiteSpace=wrap;html=1;" vertex="1" parent="1">
          <mxGeometry y="120" width="120" height="60" as="geometry" />
        </mxCell>
        <mxCell id="g_IsIZJmFIKbilpampKu-16" style="edgeStyle=orthogonalEdgeStyle;rounded=0;orthogonalLoop=1;jettySize=auto;html=1;exitX=0.5;exitY=1;exitDx=0;exitDy=0;entryX=0.5;entryY=0;entryDx=0;entryDy=0;" edge="1" parent="1" source="g_IsIZJmFIKbilpampKu-2" target="g_IsIZJmFIKbilpampKu-3">
          <mxGeometry relative="1" as="geometry" />
        </mxCell>
        <mxCell id="g_IsIZJmFIKbilpampKu-2" value="LangieSimpleAgent" style="rounded=1;whiteSpace=wrap;html=1;" vertex="1" parent="1">
          <mxGeometry x="160" y="120" width="120" height="60" as="geometry" />
        </mxCell>
        <mxCell id="g_IsIZJmFIKbilpampKu-17" style="edgeStyle=orthogonalEdgeStyle;rounded=0;orthogonalLoop=1;jettySize=auto;html=1;exitX=1;exitY=0.5;exitDx=0;exitDy=0;entryX=0;entryY=0.5;entryDx=0;entryDy=0;" edge="1" parent="1" source="g_IsIZJmFIKbilpampKu-3" target="g_IsIZJmFIKbilpampKu-4">
          <mxGeometry relative="1" as="geometry" />
        </mxCell>
        <mxCell id="g_IsIZJmFIKbilpampKu-20" style="edgeStyle=orthogonalEdgeStyle;rounded=0;orthogonalLoop=1;jettySize=auto;html=1;exitX=0.5;exitY=1;exitDx=0;exitDy=0;entryX=0.5;entryY=0;entryDx=0;entryDy=0;startArrow=classic;startFill=1;" edge="1" parent="1" source="g_IsIZJmFIKbilpampKu-3" target="g_IsIZJmFIKbilpampKu-14">
          <mxGeometry relative="1" as="geometry" />
        </mxCell>
        <mxCell id="g_IsIZJmFIKbilpampKu-3" value="MCPClientMaanger" style="rounded=1;whiteSpace=wrap;html=1;" vertex="1" parent="1">
          <mxGeometry x="160" y="220" width="120" height="60" as="geometry" />
        </mxCell>
        <mxCell id="g_IsIZJmFIKbilpampKu-18" style="edgeStyle=orthogonalEdgeStyle;rounded=0;orthogonalLoop=1;jettySize=auto;html=1;exitX=1;exitY=0.5;exitDx=0;exitDy=0;entryX=0;entryY=0.5;entryDx=0;entryDy=0;" edge="1" parent="1" source="g_IsIZJmFIKbilpampKu-4" target="g_IsIZJmFIKbilpampKu-5">
          <mxGeometry relative="1" as="geometry" />
        </mxCell>
        <mxCell id="g_IsIZJmFIKbilpampKu-4" value="FastMCPClient" style="rounded=1;whiteSpace=wrap;html=1;" vertex="1" parent="1">
          <mxGeometry x="330" y="220" width="120" height="60" as="geometry" />
        </mxCell>
        <mxCell id="g_IsIZJmFIKbilpampKu-19" style="edgeStyle=orthogonalEdgeStyle;rounded=0;orthogonalLoop=1;jettySize=auto;html=1;entryX=0;entryY=0.5;entryDx=0;entryDy=0;" edge="1" parent="1" source="g_IsIZJmFIKbilpampKu-5" target="g_IsIZJmFIKbilpampKu-7">
          <mxGeometry relative="1" as="geometry">
            <mxPoint x="640" y="250" as="targetPoint" />
          </mxGeometry>
        </mxCell>
        <mxCell id="g_IsIZJmFIKbilpampKu-5" value="HTTP" style="rounded=1;whiteSpace=wrap;html=1;" vertex="1" parent="1">
          <mxGeometry x="500" y="220" width="120" height="60" as="geometry" />
        </mxCell>
        <mxCell id="g_IsIZJmFIKbilpampKu-11" style="edgeStyle=orthogonalEdgeStyle;rounded=0;orthogonalLoop=1;jettySize=auto;html=1;exitX=0.5;exitY=1;exitDx=0;exitDy=0;entryX=0.5;entryY=0;entryDx=0;entryDy=0;" edge="1" parent="1" source="g_IsIZJmFIKbilpampKu-7" target="g_IsIZJmFIKbilpampKu-8">
          <mxGeometry relative="1" as="geometry">
            <mxPoint x="630" y="320" as="targetPoint" />
          </mxGeometry>
        </mxCell>
        <mxCell id="g_IsIZJmFIKbilpampKu-13" style="edgeStyle=orthogonalEdgeStyle;rounded=0;orthogonalLoop=1;jettySize=auto;html=1;exitX=0.5;exitY=1;exitDx=0;exitDy=0;entryX=0.5;entryY=0;entryDx=0;entryDy=0;" edge="1" parent="1" source="g_IsIZJmFIKbilpampKu-7" target="g_IsIZJmFIKbilpampKu-12">
          <mxGeometry relative="1" as="geometry" />
        </mxCell>
        <mxCell id="g_IsIZJmFIKbilpampKu-7" value="FastMCP Server" style="rounded=1;whiteSpace=wrap;html=1;" vertex="1" parent="1">
          <mxGeometry x="670" y="220" width="120" height="60" as="geometry" />
        </mxCell>
        <mxCell id="g_IsIZJmFIKbilpampKu-8" value="&lt;b&gt;COMMON&lt;/b&gt; Internal Tools" style="ellipse;whiteSpace=wrap;html=1;rounded=1;" vertex="1" parent="1">
          <mxGeometry x="450" y="340" width="180" height="80" as="geometry" />
        </mxCell>
        <mxCell id="g_IsIZJmFIKbilpampKu-12" value="&lt;b&gt;ATLAS &lt;/b&gt;External Tools" style="ellipse;whiteSpace=wrap;html=1;rounded=1;" vertex="1" parent="1">
          <mxGeometry x="640" y="340" width="180" height="80" as="geometry" />
        </mxCell>
        <mxCell id="g_IsIZJmFIKbilpampKu-14" value="State Model" style="rounded=1;whiteSpace=wrap;html=1;" vertex="1" parent="1">
          <mxGeometry x="160" y="330" width="120" height="60" as="geometry" />
        </mxCell>
      </root>
    </mxGraphModel>
  </diagram>
</mxfile>
